<svg xmlns="http://www.w3.org/2000/svg" xmlns:xlink="http://www.w3.org/1999/xlink" viewBox="16.901 14.912 341.986 195.3"><defs><path id="a" d="M3.297-13.375H4.78c1.985 0 3.688.14 3.688 2.531 0 2.031-1.953 2.688-3.64 2.688H3.296ZM1.844 0h1.453v-6.906h1.187c1.391 0 2.016.078 2.86 1.953L9.454 0h1.593L8.562-5.656c-.468-.985-.718-1.625-1.89-1.766v-.047c1.797-.234 3.25-1.484 3.25-3.375 0-2.687-1.703-3.797-4.297-3.797H1.844Zm0 0"/><path id="b" d="M4.031-11.812h.953l2.641-3.016H5.969Zm4.797 10.14c-.625.39-2.031.797-3 .797-2.312 0-3.516-1.828-3.516-4.094h7.313v-.672c0-2.875-1.234-5.312-4.25-5.312-2.719 0-4.516 2.328-4.516 5.61C.86-2.142 2.188.25 5.72.25c.984 0 2.187-.203 3.11-.578ZM2.313-6.109c0-1.75 1.187-3.703 3.14-3.703 1.969 0 2.719 1.843 2.719 3.703Zm0 0"/><path id="c" d="M9.125-10.687h-1.39L4.64-1.453h-.047L1.64-10.687H.188L3.813 0h1.562Zm0 0"/><path id="d" d="M1.656 0h1.328v-10.687H1.656Zm1.328-15.312H1.656v1.765h1.328Zm0 0"/><path id="e" d="M.719-.25c.937.375 1.969.5 3 .5 1.61 0 3.719-.781 3.719-3.031 0-3.516-5.25-3.25-5.25-5.25 0-1.36.937-1.781 2.296-1.781.735 0 1.688.187 2.375.5l.125-1.157c-.953-.344-2.078-.484-2.64-.484-1.766 0-3.485.797-3.485 2.922C.86-4.921 6-5.328 6-2.781 6-1.578 4.89-.875 3.625-.875c-1.031 0-1.984-.281-2.781-.672Zm0 0"/><path id="f" d="M8.828-1.672c-.625.39-2.031.797-3 .797-2.312 0-3.516-1.828-3.516-4.094h7.313v-.672c0-2.875-1.234-5.312-4.25-5.312-2.719 0-4.516 2.328-4.516 5.61C.86-2.142 2.188.25 5.72.25c.984 0 2.187-.203 3.11-.578ZM2.313-6.109c0-1.75 1.187-3.703 3.14-3.703 1.969 0 2.719 1.843 2.719 3.703Zm0 0"/><path id="g" d="M10-10.687H8.688v5.906C8.688-3 7.922-.875 5.515-.875c-1.828 0-2.532-1.312-2.532-3.312v-6.5H1.656v6.828c0 2.343 1 4.109 3.657 4.109C7.53.25 8.328-.937 8.766-1.906h.046V0h1.266C10-.86 10-1.703 10-2.516Zm0 0"/><path id="h" d="M1.656 0h1.328v-5.281c0-1.938.563-4.281 2.657-4.281.328 0 .687.046.968.124v-1.374a4 4 0 0 0-.921-.141c-1.375 0-2.266 1.125-2.75 2.312H2.89v-2.046H1.578c.078.765.078 1.203.078 2.39Zm0 0"/><path id="j" d="M7.797 0h1.297C9-.734 9-1.39 9-2.25v-4.719c0-2.781-1.11-3.984-3.766-3.984-.937 0-2.312.344-3.14.734v1.281c.984-.624 2.031-.874 3.14-.874 1.797 0 2.438.921 2.438 2.75v.546h-.25c-2.766 0-6.578.157-6.578 3.75 0 .97.484 3.016 3.515 3.016 1.329 0 2.813-.687 3.407-1.969h.03Zm-.125-4.734c0 1.156-.063 3.859-3.156 3.859-1.22 0-2.235-.531-2.235-1.937 0-2.344 2.735-2.579 5.016-2.579h.375Zm0 0"/><path id="k" d="M2.469-5.344c0-2.078.656-4.468 3.172-4.468 2.406 0 3.172 1.89 3.172 4.468 0 1.953-.86 4.219-3.25 4.219-2.25 0-3.094-2.125-3.094-4.219m7.656-5.343H8.813v1.203h-.047c-.985-1.266-1.907-1.47-3.328-1.47-3.157 0-4.407 2.36-4.407 5.61C1.031-2.984 2.125 0 5.531 0c1.375 0 2.547-.547 3.25-2.094h.047c0 3.016-.297 5.485-3.687 5.485a7.3 7.3 0 0 1-3.157-.75l-.093 1.328c.547.156 1.828.562 3.218.562 3.672 0 5.016-2.437 5.016-5.406Zm0 0"/><path id="l" d="M1.797 0H3.25v-13.187h.047L8.78 0h1.235l5.328-13.187h.047V0h1.453v-14.64h-2.078L9.39-1.767 4.047-14.64h-2.25Zm0 0"/><path id="m" d="M6.266-10.687H3.844v-3.047l-1.328.468v2.579H.422v1.124h2.094v6.25c0 1.954.078 3.563 2.437 3.563.64 0 1.297-.172 1.61-.297l-.079-1.078c-.375.14-.718.25-1.218.25-1.078 0-1.422-.797-1.422-1.766v-6.921h2.422Zm0 0"/><path id="n" d="M1.656 0h1.328v-5.906c0-1.797.75-3.907 3.157-3.907 1.828 0 2.547 1.297 2.547 3.313V0H10v-6.828c0-2.36-1-4.125-3.64-4.125-2.235 0-3.032 1.203-3.47 2.172h-.03v-1.906H1.577c.078.859.078 1.687.078 2.515Zm0 0"/><path id="o" d="M9.125-10.687h-1.39l-3.08 8.906H4.61l.032.015-3-8.921H.188L3.984.124l-.265.938C3.297 2.452 2.922 3.39 1.78 3.39c-.484 0-.734-.079-.984-.157L.672 4.36c.437.11.937.172 1.422.172 1.484 0 2.25-1.468 2.75-2.937Zm0 0"/><path id="p" d="M.86-4.922h5.265v-1.453H.859Zm0 0"/><path id="q" d="M.844-5.344C.844-2.437 2.375.25 5.828.25c3.469 0 4.985-2.687 4.985-5.594 0-2.922-1.516-5.61-4.985-5.61-3.453 0-4.984 2.688-4.984 5.61m1.437 0c0-2.484 1.235-4.468 3.547-4.468s3.547 1.984 3.547 4.468c0 2.469-1.234 4.469-3.547 4.469-2.312 0-3.547-2-3.547-4.469m0 0"/><path id="r" d="M1.656 0h1.328v-5.719c0-1.875.813-4.093 3.157-4.093 2.187 0 2.547 1.593 2.547 3.437V0H10v-6.39c0-2.641-.781-4.563-3.64-4.563-1.579 0-2.782.89-3.344 2.062h-.032v-6.828H1.656Zm0 0"/></defs><path fill="#231F20" d="M358.398 42.648c0-2.316-25.28-15.468-25.28-15.468s7 5.394 7 16.195c0 10.117-8.247 16.64-8.247 16.64s26.527-15.035 26.527-17.367m0 75.052c0-2.325-25.28-15.47-25.28-15.47s7 5.395 7 16.196c0 10.117-8.247 16.644-8.247 16.644s26.527-15.047 26.527-17.37M21.992 135.398h2.41c2.559 0 5.262.461 5.262 3.454 0 2.664-2.887 3.191-5.262 3.191h-2.41Zm0-9.066h1.973c2.34 0 4.933.2 4.933 2.86 0 2.367-2.668 2.796-4.824 2.796h-2.082Zm-5.105 19.32h8.906c3.215 0 8.977-.855 8.977-6.636 0-2.828-2.372-4.926-5.836-5.223v-.066c3.027-.493 5.07-2.399 5.07-5.125 0-5.024-4.926-5.88-8.211-5.88h-8.906Zm22.851 0h15.11v-3.609H44.844v-6.445h9.09v-3.61h-9.09v-5.656h9.93v-3.61H39.737Zm20.59 0h4.887v-17.148h.074l9.75 17.148h6.238v-22.93h-4.886v17.15h-.075l-9.714-17.15h-6.274Zm27.156 0h6.97c7.816 0 14.71-2.363 14.71-11.464s-6.894-11.465-14.71-11.465h-6.97Zm5.11-19.32h2.847c4.274 0 8.399 2.86 8.399 7.856s-4.125 7.855-8.399 7.855h-2.847Zm21.797 19.32h15.105v-3.609h-10v-6.445h9.09v-3.61h-9.09v-5.656h9.93v-3.61H114.39Zm25.511-19.32h1.68c2.559 0 5.406.23 5.406 2.992 0 2.86-2.886 3.188-5.406 3.188h-1.68Zm-5.105 19.32h5.105v-9.527h1.645c2.152 0 2.812.656 3.543 2.363l3.066 7.164h5.692l-4.086-8.968c-.512-1.02-1.317-2.266-2.7-2.368v-.062c3.247-.395 5.25-2.629 5.25-5.324 0-6.371-6.53-6.207-12.007-6.207h-5.508Zm48.144-22.507c-1.859-.555-3.902-.817-6.093-.817-4.493 0-8.907 1.871-8.907 6.996 0 7.59 11.172 5.781 11.172 10.153 0 2.07-2.593 2.957-4.531 2.957-2.008 0-4.016-.559-5.766-1.41l-.472 4.136c2.515.555 3.754.887 6.531.887 5.148 0 9.563-1.906 9.563-6.93 0-7.691-11.172-6.015-11.172-9.992 0-2.496 2.265-3.187 4.02-3.187 1.788 0 3.577.363 5.183.988Zm20.48 13.64h-7.444l3.687-9.469h.07Zm-16.425 8.867h5.293l2.227-5.257h10.328l2.191 5.257h5.66l-10.004-22.93h-5.765ZM17.07 112.797h5.106v-10.055h8.617v-3.61h-8.617V93.48h9.054v-3.613H17.07Zm18.508 0h5.106v-22.93h-5.106Zm11.281 0h6.97c7.812 0 14.706-2.363 14.706-11.465s-6.894-11.465-14.707-11.465H46.86Zm5.106-19.317h2.847c4.274 0 8.399 2.86 8.399 7.852 0 4.996-4.125 7.856-8.398 7.856h-2.848Zm21.758 11.043c0 6.141 3.867 8.668 10.402 8.668s10.402-2.527 10.402-8.668V89.867h-5.105v13.242c0 3.91-1.387 6.473-5.297 6.473-3.906 0-5.293-2.562-5.293-6.473V89.867h-5.11Zm45.554 4.106c-1.203.558-3.578.953-5.586.953-5.437 0-8.652-3.516-8.652-8.184 0-4.699 3.285-8.312 8.543-8.312 1.824 0 3.578.227 5.512 1.215l.367-3.88c-1.863-.651-4.09-.948-5.77-.948-8.652 0-13.976 4.402-13.976 12.254 0 7.753 5.726 11.464 13.976 11.464 1.934 0 3.942-.328 5.805-.722Zm4.239 4.168h5.105v-22.93h-5.105Zm25.078-8.867h-7.45l3.688-9.465h.074Zm-16.43 8.867h5.293l2.227-5.258h10.332l2.191 5.258h5.656l-10-22.93h-5.77Zm29.242 0h5.106v-22.93h-5.106Zm15.95-19.317h1.68c2.558 0 5.405.227 5.405 2.989 0 2.863-2.886 3.191-5.406 3.191h-1.68Zm-5.106 19.317h5.105v-9.527H179c2.152 0 2.813.656 3.543 2.363l3.066 7.164h5.692l-4.086-8.969c-.512-1.02-1.313-2.266-2.7-2.363v-.067c3.247-.394 5.25-2.625 5.25-5.324 0-6.37-6.53-6.207-12.007-6.207h-5.508Zm23.434 0h15.109v-3.61h-10.004v-6.445h9.09v-3.61h-9.09V93.48h9.93v-3.613h-15.035Zm0 0"/><path fill="#7B7979" d="M232.523 70.453V14.941h56.704c8.617 0 27.355 7.582 27.355 27.25 0 20.704-18.555 28.262-27.355 28.262Zm0 74.867V89.81h56.704c8.617 0 27.355 7.582 27.355 27.25 0 20.707-18.555 28.261-27.355 28.261Zm0 0"/><g fill="#231F20"><use xlink:href="#a" x="69.429" y="181.475"/><use xlink:href="#b" x="82.137" y="181.475"/><use xlink:href="#c" x="93.672" y="181.475"/><use xlink:href="#d" x="104.032" y="181.475"/><use xlink:href="#e" x="109.736" y="181.475"/><use xlink:href="#f" x="118.943" y="181.475"/><use xlink:href="#g" x="130.477" y="181.475"/><use xlink:href="#h" x="143.186" y="181.475"/><use xlink:href="#i" x="151.218" y="181.475"/><use xlink:href="#j" x="158.097" y="181.475"/><use xlink:href="#k" x="169.632" y="181.475"/><use xlink:href="#h" x="182.341" y="181.475"/><use xlink:href="#b" x="190.373" y="181.475"/><use xlink:href="#b" x="201.907" y="181.475"/></g><g fill="#231F20"><use xlink:href="#l" x="15.133" y="205.442"/><use xlink:href="#j" x="34.826" y="205.442"/><use xlink:href="#h" x="46.36" y="205.442"/><use xlink:href="#m" x="54.393" y="205.442"/><use xlink:href="#d" x="62.425" y="205.442"/><use xlink:href="#k" x="68.129" y="205.442"/><use xlink:href="#n" x="80.838" y="205.442"/><use xlink:href="#o" x="93.547" y="205.442"/><use xlink:href="#i" x="103.907" y="205.442"/><use xlink:href="#p" x="110.786" y="205.442"/><use xlink:href="#i" x="118.818" y="205.442"/><use xlink:href="#l" x="125.697" y="205.442"/><use xlink:href="#q" x="145.389" y="205.442"/><use xlink:href="#n" x="158.098" y="205.442"/><use xlink:href="#m" x="170.807" y="205.442"/><use xlink:href="#r" x="178.839" y="205.442"/><use xlink:href="#f" x="191.548" y="205.442"/><use xlink:href="#o" x="203.082" y="205.442"/></g></svg>